<svg width="32" height="32" viewBox="0 0 32 32" fill="none" xmlns="http://www.w3.org/2000/svg">
<rect width="32" height="32" fill="#034D32"/>
<path d="M6.44763 24C6.38363 24 6.35163 23.952 6.35163 23.856C6.35163 23.76 6.38363 23.712 6.44763 23.712C6.94363 23.712 7.31963 23.672 7.57563 23.592C7.83163 23.496 8.02363 23.336 8.15163 23.112C8.27963 22.888 8.39163 22.536 8.48763 22.056L10.4556 10.944C10.5196 10.528 10.5516 10.264 10.5516 10.152C10.5516 9.816 10.4476 9.592 10.2396 9.48C10.0316 9.352 9.65563 9.288 9.11163 9.288C9.04763 9.288 9.01562 9.24 9.01562 9.144C9.01562 9.048 9.04763 9 9.11163 9L10.2156 9.024C10.8556 9.056 11.3756 9.072 11.7756 9.072C12.0316 9.072 12.2716 9.064 12.4956 9.048C12.7356 9.032 12.9436 9.016 13.1196 9C13.5836 8.952 13.9916 8.928 14.3436 8.928C16.9516 8.928 18.2556 9.784 18.2556 11.496C18.2556 11.704 18.2316 11.944 18.1836 12.216C18.0236 13.096 17.6316 13.88 17.0076 14.568C16.3996 15.24 15.6476 15.76 14.7516 16.128C13.8556 16.496 12.9116 16.68 11.9196 16.68C11.5996 16.68 11.3756 16.664 11.2476 16.632L11.3676 15.936C11.6076 16.032 11.9516 16.08 12.3996 16.08C13.4716 16.08 14.2876 15.824 14.8476 15.312C15.4076 14.8 15.7836 13.968 15.9756 12.816C16.0556 12.336 16.0956 11.952 16.0956 11.664C16.0956 10.88 15.9036 10.304 15.5196 9.936C15.1356 9.568 14.6316 9.384 14.0076 9.384C13.6076 9.384 13.3276 9.416 13.1676 9.48C13.0076 9.528 12.8716 9.664 12.7596 9.888C12.6636 10.096 12.5676 10.464 12.4716 10.992L10.5036 22.056C10.4396 22.504 10.4076 22.768 10.4076 22.848C10.4076 23.184 10.5036 23.416 10.6956 23.544C10.9036 23.656 11.2796 23.712 11.8236 23.712C11.8876 23.712 11.9196 23.76 11.9196 23.856C11.9196 23.952 11.8956 24 11.8476 24C11.3676 24 10.9996 23.992 10.7436 23.976L9.15963 23.952L7.57563 23.976C7.30363 23.992 6.92763 24 6.44763 24ZM17.2236 24C16.9836 24 16.6636 23.72 16.2636 23.16C15.8636 22.6 15.3996 21.736 14.8716 20.568C14.3596 19.4 13.8156 17.968 13.2396 16.272L14.9196 15.696C15.7516 17.728 16.4716 19.32 17.0796 20.472C17.7036 21.624 18.2796 22.456 18.8076 22.968C19.3516 23.464 19.9116 23.712 20.4876 23.712C20.5356 23.712 20.5596 23.76 20.5596 23.856C20.5596 23.952 20.5356 24 20.4876 24H17.2236Z" fill="white"/>
<path d="M22.8619 24.216C22.4779 24.216 22.1739 24.104 21.9499 23.88C21.7259 23.656 21.6139 23.352 21.6139 22.968C21.6139 22.6 21.7259 22.312 21.9499 22.104C22.1739 21.88 22.4779 21.768 22.8619 21.768C23.2459 21.768 23.5419 21.88 23.7499 22.104C23.9739 22.312 24.0859 22.6 24.0859 22.968C24.0859 23.352 23.9739 23.656 23.7499 23.88C23.5419 24.104 23.2459 24.216 22.8619 24.216Z" fill="#00BD78"/>
</svg>
